<?xml version="1.0" standalone="no"?>
<!DOCTYPE svg PUBLIC "-//W3C//DTD SVG 20010904//EN"
 "http://www.w3.org/TR/2001/REC-SVG-20010904/DTD/svg10.dtd">
<svg version="1.0" xmlns="http://www.w3.org/2000/svg"
 width="410.000000pt" height="410.000000pt" viewBox="0 0 410.000000 410.000000"
 preserveAspectRatio="xMidYMid meet">
<metadata>
Created by potrace 1.11, written by Peter Selinger 2001-2013
</metadata>
<g transform="translate(0.000000,410.000000) scale(0.100000,-0.100000)"
fill="#000000" stroke="none">
<path d="M293 4040 c-95 -19 -184 -94 -219 -186 -18 -48 -19 -102 -19 -1804 0
-1706 1 -1756 19 -1805 25 -65 94 -137 159 -166 l52 -24 1765 0 1765 0 52 24
c65 29 134 101 159 166 18 49 19 99 19 1805 0 1706 -1 1756 -19 1805 -25 65
-94 137 -159 166 l-52 24 -1740 1 c-957 1 -1759 -2 -1782 -6z m2019 -459 c319
-55 600 -202 833 -436 224 -224 357 -467 428 -782 18 -84 21 -128 21 -313 0
-185 -3 -229 -21 -313 -71 -315 -204 -559 -428 -782 -302 -302 -670 -455
-1095 -455 -324 0 -614 89 -883 272 -120 81 -313 275 -394 394 -84 124 -165
287 -171 345 -5 56 20 89 69 89 45 0 66 -15 80 -57 44 -139 179 -343 314 -478
268 -269 603 -407 985 -407 284 0 522 69 755 220 533 343 767 1004 570 1608
-98 300 -303 564 -570 736 -217 140 -439 209 -724 224 -111 6 -137 10 -152 25
-26 26 -25 83 1 109 18 18 33 20 144 20 77 0 167 -7 238 -19z m-152 -711 c71
-36 107 -91 280 -420 67 -129 179 -341 248 -470 69 -129 136 -264 148 -299 20
-58 21 -68 9 -92 -16 -30 -33 -39 -75 -39 -38 0 -64 26 -85 84 -10 27 -86 178
-170 335 -83 157 -191 363 -240 456 -99 190 -170 305 -190 305 -24 0 -73 -69
-191 -267 -64 -109 -192 -324 -284 -478 -93 -155 -175 -297 -183 -317 -26 -63
-94 -88 -145 -52 -47 32 -34 67 124 333 80 135 219 369 307 520 206 349 269
420 370 421 21 0 55 -9 77 -20z m-3 -844 c27 -30 33 -44 33 -82 0 -41 -5 -51
-39 -85 -34 -34 -44 -39 -86 -39 -42 0 -52 5 -86 39 -34 34 -39 45 -39 84 0
35 6 53 27 77 34 41 58 51 113 46 35 -3 51 -11 77 -40z"/>
</g>
</svg>
